<svg width="256" height="256" fill="none" xmlns="http://www.w3.org/2000/svg">
    <rect width="256" height="256" rx="40" fill="#2F2F33" fill-opacity=".91" />
    <path fill-rule="evenodd" clip-rule="evenodd"
        d="M153.268 136.607a6.744 6.744 0 00-1.959 5.99l2.425 14.054c.756 4.375-2.741 7.928-6.708 7.928a6.822 6.822 0 01-3.17-.793l-12.692-6.636a6.853 6.853 0 00-6.336 0l-12.691 6.636a6.825 6.825 0 01-3.17.793c-3.967 0-7.464-3.553-6.708-7.928l2.425-14.054a6.744 6.744 0 00-1.959-5.99l-10.27-9.952c-4.038-3.916-1.808-10.739 3.772-11.546l14.192-2.049a6.796 6.796 0 005.125-3.704l6.347-12.784c1.249-2.516 3.678-3.772 6.103-3.772 2.43 0 4.859 1.256 6.107 3.772l6.348 12.784a6.794 6.794 0 005.125 3.704l14.192 2.049c5.58.807 7.81 7.63 3.771 11.546l-10.269 9.952z"
        fill="#fff" />
    <path
        d="M209.805 108.659v-13.21C209.805 80.85 197.99 69 183.418 69v13.229c7.281 0 13.195 5.922 13.195 13.22v13.21c0 7.945 3.568 14.992 9.104 19.841-5.536 4.847-9.104 11.884-9.104 19.833v13.221c0 7.303-5.914 13.223-13.201 13.223V188c14.564 0 26.393-11.835 26.393-26.446v-13.221c0-7.302 5.914-13.223 13.195-13.223v-13.228c-7.293 0-13.195-5.923-13.195-13.223zM59.395 108.667V95.444c0-7.303 5.914-13.223 13.2-13.223V69c-14.571 0-26.394 11.835-26.394 26.444l-.006 13.223c0 7.302-5.908 13.221-13.195 13.221v13.222l.006.006c7.287 0 13.195 5.921 13.195 13.223v13.209C46.2 176.146 58.01 188 72.588 188v-13.229c-7.287 0-13.193-5.92-13.193-13.223v-13.209c0-7.947-3.57-14.992-9.104-19.839 5.534-4.849 9.104-11.89 9.104-19.833z"
        fill="#fff" />
</svg>